# xmcd
#
# Track frame offsets:
#	150
#	14655
#	34445
#	56100
#	73095
#	92720
#	111477
#	137317
#	155057
#	175940
#	208395
#	225705
#	244312
#	262447
#
# Disc length: 4083 seconds
#
# Revision: 0
# Processed by: cddbd v1.5.2PL0 Copyright (c) Steve Scherf et al.
# Submitted via: audiograbber 1.83.01
#
DISCID=e00ff10e
DTITLE=Robbie Williams - Escapology [CD-R]
DYEAR=2002
DGENRE=Rock
TTITLE0=How Peculiar
TTITLE1=Feel
TTITLE2=Something Beautiful
TTITLE3=Monsoon
TTITLE4=Sexed Up
TTITLE5=Love Somebody
TTITLE6=Revolution
TTITLE7=Handsome Man
TTITLE8=Come Undone
TTITLE9=Me And My Monkey
TTITLE10=Song 3
TTITLE11=Hot Fudge
TTITLE12=Cursed
TTITLE13=Nan's Song
EXTD=
EXTT0=
EXTT1=
EXTT2=
EXTT3=
EXTT4=
EXTT5=
EXTT6=
EXTT7=
EXTT8=
EXTT9=
EXTT10=
EXTT11=
EXTT12=
EXTT13=
PLAYORDER=
